<svg width="183" height="36" viewBox="0 0 183 36" fill="none" xmlns="http://www.w3.org/2000/svg">
<path d="M0.582386 28V1.81818H5.32528V13.848H5.64489L15.8594 1.81818H21.6506L11.5256 13.5668L21.7401 28H16.0384L8.22727 16.7756L5.32528 20.2017V28H0.582386ZM30.3917 28.3963C29.1474 28.3963 28.0266 28.1747 27.0295 27.7315C26.0408 27.2798 25.2567 26.6151 24.6772 25.7372C24.1062 24.8594 23.8207 23.777 23.8207 22.4901C23.8207 21.3821 24.0252 20.4659 24.4343 19.7415C24.8434 19.017 25.4016 18.4375 26.109 18.0028C26.8164 17.5682 27.6133 17.2401 28.4996 17.0185C29.3945 16.7884 30.3192 16.6222 31.2738 16.5199C32.4244 16.4006 33.3576 16.294 34.0735 16.2003C34.7894 16.098 35.3093 15.9446 35.6332 15.7401C35.9656 15.527 36.1317 15.1989 36.1317 14.7557V14.679C36.1317 13.7159 35.8462 12.9702 35.2752 12.4418C34.7042 11.9134 33.8817 11.6491 32.8079 11.6491C31.6744 11.6491 30.7752 11.8963 30.1104 12.3906C29.4542 12.8849 29.011 13.4687 28.7809 14.142L24.4599 13.5284C24.8008 12.3352 25.3633 11.3381 26.1474 10.5369C26.9315 9.72727 27.8903 9.12216 29.0238 8.72159C30.1573 8.3125 31.4102 8.10795 32.7823 8.10795C33.7283 8.10795 34.6701 8.21875 35.6076 8.44034C36.5451 8.66193 37.4016 9.02841 38.1772 9.53977C38.9528 10.0426 39.5749 10.7287 40.0437 11.598C40.521 12.4673 40.7596 13.554 40.7596 14.858V28H36.3107V25.3026H36.1573C35.8761 25.848 35.4798 26.3594 34.9684 26.8366C34.4656 27.3054 33.8306 27.6847 33.0636 27.9744C32.305 28.2557 31.4144 28.3963 30.3917 28.3963ZM31.5934 24.9957C32.5224 24.9957 33.3278 24.8125 34.0096 24.446C34.6914 24.071 35.2156 23.5767 35.582 22.9631C35.957 22.3494 36.1445 21.6804 36.1445 20.956V18.642C35.9996 18.7614 35.7525 18.8722 35.4031 18.9744C35.0621 19.0767 34.6786 19.1662 34.2525 19.2429C33.8263 19.3196 33.4045 19.3878 32.9869 19.4474C32.5692 19.5071 32.207 19.5582 31.9002 19.6009C31.2099 19.6946 30.592 19.848 30.0465 20.0611C29.5011 20.2741 29.0707 20.5724 28.7553 20.956C28.44 21.331 28.2823 21.8168 28.2823 22.4134C28.2823 23.2656 28.5934 23.9091 29.2156 24.3438C29.8377 24.7784 30.6303 24.9957 31.5934 24.9957ZM45.413 28V8.36364H49.9002V11.6364H50.1048C50.4627 10.5028 51.0763 9.62926 51.9457 9.01562C52.8235 8.39347 53.8249 8.08239 54.9499 8.08239C55.2056 8.08239 55.4911 8.09517 55.8065 8.12074C56.1303 8.13778 56.3988 8.16761 56.6119 8.21023V12.4673C56.4158 12.3991 56.1048 12.3395 55.6786 12.2884C55.261 12.2287 54.8562 12.1989 54.4641 12.1989C53.6204 12.1989 52.8619 12.3821 52.1886 12.7486C51.5238 13.1065 50.9996 13.6051 50.6161 14.2443C50.2326 14.8835 50.0408 15.6207 50.0408 16.456V28H45.413ZM70.5465 8.36364V11.9432H59.2582V8.36364H70.5465ZM62.0451 3.65909H66.6729V22.0938C66.6729 22.7159 66.7667 23.1932 66.9542 23.5256C67.1502 23.8494 67.4059 24.071 67.7212 24.1903C68.0366 24.3097 68.386 24.3693 68.7695 24.3693C69.0593 24.3693 69.3235 24.348 69.5621 24.3054C69.8093 24.2628 69.9968 24.2244 70.1246 24.1903L70.9045 27.8082C70.6573 27.8935 70.3036 27.9872 69.8434 28.0895C69.3917 28.1918 68.8377 28.2514 68.1815 28.2685C67.0224 28.3026 65.9783 28.1278 65.0494 27.7443C64.1204 27.3523 63.3832 26.7472 62.8377 25.929C62.3008 25.1108 62.0366 24.0881 62.0451 22.8608V3.65909ZM79.4666 16.4943V28H74.8388V1.81818H79.3643V11.7003H79.5945C80.0547 10.5923 80.7663 9.71875 81.7294 9.07955C82.701 8.43182 83.9368 8.10795 85.4368 8.10795C86.8004 8.10795 87.9893 8.39347 89.0036 8.96449C90.0178 9.53551 90.8018 10.3707 91.3558 11.4702C91.9183 12.5696 92.1996 13.9119 92.1996 15.4972V28H87.5717V16.2131C87.5717 14.892 87.2308 13.8651 86.549 13.1321C85.8757 12.3906 84.9297 12.0199 83.7109 12.0199C82.8928 12.0199 82.1598 12.1989 81.5121 12.5568C80.8729 12.9062 80.37 13.4134 80.0036 14.0781C79.6456 14.7429 79.4666 15.5483 79.4666 16.4943ZM96.9169 28V8.36364H101.545V28H96.9169ZM99.2436 5.5767C98.5107 5.5767 97.88 5.33381 97.3516 4.84801C96.8232 4.35369 96.5589 3.76136 96.5589 3.07102C96.5589 2.37216 96.8232 1.77983 97.3516 1.29403C97.88 0.799715 98.5107 0.552556 99.2436 0.552556C99.9851 0.552556 100.616 0.799715 101.136 1.29403C101.664 1.77983 101.928 2.37216 101.928 3.07102C101.928 3.76136 101.664 4.35369 101.136 4.84801C100.616 5.33381 99.9851 5.5767 99.2436 5.5767ZM110.522 21.8381L110.51 16.2514H111.251L118.308 8.36364H123.716L115.035 18.0284H114.076L110.522 21.8381ZM106.304 28V1.81818H110.931V28H106.304ZM118.627 28L112.235 19.0639L115.355 15.804L124.163 28H118.627ZM134.684 28.3835C132.716 28.3835 131.015 27.9744 129.583 27.1562C128.16 26.3295 127.065 25.1619 126.298 23.6534C125.531 22.1364 125.147 20.3509 125.147 18.2969C125.147 16.277 125.531 14.5043 126.298 12.9787C127.074 11.4446 128.156 10.2514 129.545 9.39915C130.934 8.53835 132.566 8.10795 134.441 8.10795C135.652 8.10795 136.794 8.30398 137.868 8.69602C138.95 9.07954 139.904 9.67614 140.731 10.4858C141.566 11.2955 142.223 12.3267 142.7 13.5795C143.177 14.8239 143.416 16.3068 143.416 18.0284V19.4474H127.321V16.3281H138.98C138.971 15.4418 138.779 14.6534 138.404 13.9631C138.029 13.2642 137.505 12.7145 136.832 12.3139C136.167 11.9134 135.392 11.7131 134.505 11.7131C133.559 11.7131 132.728 11.9432 132.012 12.4034C131.297 12.8551 130.738 13.4517 130.338 14.1932C129.946 14.9261 129.745 15.7315 129.737 16.6094V19.3324C129.737 20.4744 129.946 21.4545 130.363 22.2727C130.781 23.0824 131.365 23.7045 132.115 24.1392C132.865 24.5653 133.743 24.7784 134.748 24.7784C135.422 24.7784 136.031 24.6847 136.576 24.4972C137.122 24.3011 137.595 24.0156 137.995 23.6406C138.396 23.2656 138.699 22.8011 138.903 22.2472L143.224 22.733C142.951 23.875 142.431 24.8722 141.664 25.7244C140.906 26.5682 139.934 27.2244 138.75 27.6932C137.565 28.1534 136.21 28.3835 134.684 28.3835ZM149.645 35.3636C149.014 35.3636 148.43 35.3125 147.893 35.2102C147.365 35.1165 146.943 35.0057 146.628 34.8778L147.702 31.2727C148.375 31.4688 148.976 31.5625 149.504 31.554C150.033 31.5455 150.497 31.3793 150.898 31.0554C151.307 30.7401 151.652 30.2116 151.933 29.4702L152.33 28.4091L145.209 8.36364H150.118L154.643 23.1932H154.848L159.386 8.36364H164.308L156.446 30.3778C156.08 31.4176 155.594 32.3082 154.989 33.0497C154.384 33.7997 153.642 34.3707 152.764 34.7628C151.895 35.1634 150.855 35.3636 149.645 35.3636ZM172.599 28.3963C171.354 28.3963 170.234 28.1747 169.237 27.7315C168.248 27.2798 167.464 26.6151 166.884 25.7372C166.313 24.8594 166.028 23.777 166.028 22.4901C166.028 21.3821 166.232 20.4659 166.641 19.7415C167.05 19.017 167.609 18.4375 168.316 18.0028C169.023 17.5682 169.82 17.2401 170.707 17.0185C171.602 16.7884 172.526 16.6222 173.481 16.5199C174.631 16.4006 175.565 16.294 176.281 16.2003C176.996 16.098 177.516 15.9446 177.84 15.7401C178.173 15.527 178.339 15.1989 178.339 14.7557V14.679C178.339 13.7159 178.053 12.9702 177.482 12.4418C176.911 11.9134 176.089 11.6491 175.015 11.6491C173.881 11.6491 172.982 11.8963 172.317 12.3906C171.661 12.8849 171.218 13.4687 170.988 14.142L166.667 13.5284C167.008 12.3352 167.57 11.3381 168.354 10.5369C169.138 9.72727 170.097 9.12216 171.231 8.72159C172.364 8.3125 173.617 8.10795 174.989 8.10795C175.935 8.10795 176.877 8.21875 177.815 8.44034C178.752 8.66193 179.609 9.02841 180.384 9.53977C181.16 10.0426 181.782 10.7287 182.251 11.598C182.728 12.4673 182.967 13.554 182.967 14.858V28H178.518V25.3026H178.364C178.083 25.848 177.687 26.3594 177.175 26.8366C176.673 27.3054 176.038 27.6847 175.271 27.9744C174.512 28.2557 173.621 28.3963 172.599 28.3963ZM173.8 24.9957C174.729 24.9957 175.535 24.8125 176.217 24.446C176.898 24.071 177.423 23.5767 177.789 22.9631C178.164 22.3494 178.352 21.6804 178.352 20.956V18.642C178.207 18.7614 177.96 18.8722 177.61 18.9744C177.269 19.0767 176.886 19.1662 176.46 19.2429C176.033 19.3196 175.612 19.3878 175.194 19.4474C174.776 19.5071 174.414 19.5582 174.107 19.6009C173.417 19.6946 172.799 19.848 172.254 20.0611C171.708 20.2741 171.278 20.5724 170.962 20.956C170.647 21.331 170.489 21.8168 170.489 22.4134C170.489 23.2656 170.8 23.9091 171.423 24.3438C172.045 24.7784 172.837 24.9957 173.8 24.9957Z" fill="#009590"/>
</svg>
