<svg width="36" height="36" viewBox="0 0 36 36" fill="none" xmlns="http://www.w3.org/2000/svg">
<path d="M19.1694 24.1579L23.8452 25.057L27.6816 5.33511C27.9214 4.01632 27.0822 2.69753 25.8233 2.45775C24.5046 2.21797 23.2457 3.11715 23.0059 4.43594L19.1694 24.1579Z" fill="#FFDD67"/>
<path d="M25.8833 2.45775C25.7035 2.3978 25.5836 2.3978 25.4037 2.3978C26.4827 2.81742 27.0822 3.95638 26.8424 5.15528L23.0059 24.8772L23.8452 25.057L27.6816 5.33511C27.9814 3.95638 27.1421 2.69753 25.8833 2.45775Z" fill="#EBA352"/>
<path d="M14.3738 24.7573H20.0087V2.99725C20.0087 1.37874 18.7498 0 17.1913 0C15.6926 0 14.3738 1.31879 14.3738 2.99725V24.7573Z" fill="#FFDD67"/>
<path d="M17.2512 0C17.1313 0 16.9515 -5.80613e-08 16.8316 0.059945C18.2103 0.299725 19.2294 1.49863 19.2294 2.99725V24.8173H20.0686V2.99725C20.0686 1.31879 18.8098 0 17.2512 0Z" fill="#EBA352"/>
<path d="M11.3766 24.6974L16.1722 23.4385L10.957 3.59671C10.5973 2.21797 9.21856 1.37874 7.89976 1.67846C6.58097 2.03813 5.80169 3.41687 6.16136 4.79561L11.3766 24.6974Z" fill="#FFDD67"/>
<path d="M7.89976 1.67846L7.54009 1.8583C8.73899 1.79835 9.81801 2.57764 10.1777 3.83649L15.3929 23.6783L16.2321 23.4385L10.957 3.59671C10.5973 2.21797 9.21855 1.37874 7.89976 1.67846Z" fill="#EBA352"/>
<path d="M1.18591 6.83374C0.0469567 7.37325 -0.312714 8.81193 0.286737 10.0108L8.19949 25.7764L12.2158 23.7383L4.30306 7.9727C3.70361 6.7738 2.32487 6.29423 1.18591 6.83374Z" fill="#FFDD67"/>
<path d="M1.18591 6.83374C1.06602 6.89369 0.946135 6.95363 0.826244 7.07352C1.84531 6.7738 2.98427 7.3133 3.52377 8.39231L11.4365 24.1579L12.2158 23.7982L4.30306 7.9727C3.70361 6.7738 2.32487 6.29423 1.18591 6.83374Z" fill="#EBA352"/>
<path d="M35.7742 16.365C34.8151 14.5067 31.8179 14.6266 28.7607 17.9835C26.6026 20.3214 26.183 21.1007 24.025 21.0407V18.583C24.025 18.583 19.4092 15.1661 10.2376 16.7247C10.2376 16.7247 5.0224 17.444 5.0224 20.2015C5.0224 20.2015 4.12322 26.8554 5.98152 31.0516C8.739 37.2858 22.886 38.9044 27.322 28.2941C28.2212 26.196 30.0195 24.6374 31.638 22.6592C33.4963 20.2614 36.7933 18.3432 35.7742 16.365Z" fill="#FFDD67"/>
<path d="M35.7742 16.365C35.5944 16.0053 35.3546 15.7656 35.0549 15.5258C35.1148 15.5857 35.1748 15.6457 35.1748 15.7656C36.1938 17.8037 32.8969 19.662 30.9187 22.0598C29.3002 24.038 27.5018 25.5966 26.6026 27.6946C22.7661 36.8662 11.6164 36.8662 6.94064 32.6701C11.1967 37.4657 23.1858 37.9452 27.2021 28.2941C28.1013 26.196 29.8996 24.6374 31.5181 22.6592C33.4963 20.2614 36.7933 18.3432 35.7742 16.365ZM24.6244 21.0407C20.728 19.602 13.7744 22.2396 14.7335 29.2532C14.7335 22.7192 20.6681 21.1007 23.9051 21.1007C24.3847 21.0407 24.6244 21.0407 24.6244 21.0407Z" fill="#EBA352"/>
</svg>
